<?xml version="1.0" encoding="utf-8"?>
<!-- Generator: Adobe Illustrator 18.1.1, SVG Export Plug-In . SVG Version: 6.00 Build 0)  -->
<svg version="1.1" xmlns="http://www.w3.org/2000/svg" xmlns:xlink="http://www.w3.org/1999/xlink" x="0px" y="0px" width="319.2px"
	 height="319.2px" viewBox="0 0 319.2 319.2" enable-background="new 0 0 319.2 319.2" xml:space="preserve">
<g id="Layer_1" display="none">
	<g display="inline">
		<path fill="#FFFFFF" d="M319.4,47.4c0,74.7,0,149.3,0,224c-0.3,1.1-0.7,2.1-1,3.2c-2.8,13-9.6,23.4-19.7,31.9
			c-7.4,6.2-16.2,9.3-25.3,11.9c-21,0-42,0-63,0c-0.1-1.1-0.4-2.3-0.4-3.4c0-37.5,0-75,0-112.5c0-1.3,0.2-2.5,0.4-4.3
			c17.5,0,34.8,0,52.2,0c0-17.8,0-35.1,0-53c-17.6,0-35,0-52.3,0c0-8.7-0.3-16.7,0.1-24.6c0.4-6.6,5-10.5,11.6-10.6
			c9.2-0.1,18.3,0,27.5,0c4.3,0,8.6,0,12.9,0c0-18.1,0-35.4,0-52.9c-15.1,0-29.8-0.2-44.4,0.1c-14.8,0.3-27,6.8-37.1,17.1
			c-13.3,13.6-19.9,30.1-20.4,49c-0.2,7.3,0,14.5,0,22.2c-13.3,0-25.9,0-38.5,0c0,17.8,0,35.2,0,53c13,0,25.6,0,38.5,0
			c0,40.3,0,80.1,0,119.9c-37.7,0-75.3,0-113,0c-0.7-0.3-1.4-0.8-2.2-1c-12.5-2.6-22.6-9.1-30.9-18.6c-6.9-7.9-10.5-17.4-12.9-27.5
			c0-75,0-150,0-225c0.3-0.7,0.8-1.4,1-2.2C5,31.6,11.6,21.4,21.3,13C28.9,6.4,38,3.2,47.4,0.4c75,0,150,0,225,0
			c13.5,3,25.2,9,34.3,19.8C313.4,28.1,317,37.5,319.4,47.4z"/>
	</g>
</g>
<g id="Layer_2" display="none">
	<path display="inline" fill="#FFFFFF" d="M265.6,319.2H53.6C24,319.2,0,295.2,0,265.6V53.6C0,24,24,0,53.6,0h211.9
		c29.6,0,53.6,24,53.6,53.6v211.9C319.2,295.2,295.2,319.2,265.6,319.2z"/>
	<g display="inline">
		<path d="M133.4,109.9c8.1,0,15.5,0,22.9,0c20.7,0,41.3-0.1,62,0.1c10.6,0.1,18.6,5.1,23,14.9c4.2,9.6,2.9,18.8-3.9,26.9
			c-5.2,6.2-12.1,8.7-20.2,8.7c-26-0.1-52,0-78,0.1c-1.7,0-3.5,0-5.3,0c0,13-0.8,25.6,0.2,38.1c0.9,11.3,8.6,18.1,19.8,20
			c3.6,0.6,7.4,0.8,11.1,0.8c17.8,0.1,35.7,0,53.5,0c14.7,0,25.8,10.8,25.8,25.1c0,14.3-11.1,25-25.9,25.1c-19.5,0-38.9,0.1-58.4,0
			c-40.1-0.1-69.7-25.6-76-65.5c-0.6-3.8-0.9-7.7-0.9-11.6c0-39.2,0-78.5,0.1-117.7c0.1-17.2,13.1-28.8,29.3-26.3
			c12,1.9,20.7,12.1,20.9,24.8c0.1,10.3,0,20.7,0,31C133.4,106,133.4,107.6,133.4,109.9z"/>
	</g>
</g>
<g id="Layer_3">
	<g>
		<path fill="#FFFFFF" d="M48.5,1.1c0,38.3,0,76.7,0,115.9c-11.9,0-23.4,0-35.9,0c-0.2,3.7-0.5,6.7-0.5,9.7c0,46.2-0.1,92.4,0,138.6
			c0,24,18.7,42.7,42.7,42.8c70.2,0.1,140.4,0.1,210.5,0c24.1,0,42.8-18.6,42.9-42.6c0.1-46.5,0-93,0-139.5c0-2.5,0-5.1,0-8.2
			c-28.6,0-56.7,0-85.8,0c19.2,22.7,27.4,47.9,21.5,76.7c-4.2,20.6-14.8,37.4-31.5,50.4c-33.4,26-81.3,23.4-112-6.3
			c-27.4-26.4-39.9-76.5-3.9-119.4c-1.1-2.2-3-4.1-3-6C93.3,75.9,93.3,38.6,93.3,0c3.5,0,6.6,0,9.6,0c57.9,0,115.8,0,173.7,0
			c25.1,0,43.5,18.5,43.5,43.7c0,77.6,0,155.2,0,232.8c0,25.1-18.5,43.6-43.6,43.6c-77.6,0-155.2,0-232.8,0
			C18.6,320.1,0,301.8,0,276.7c0-78.2-0.1-156.3,0-234.5C0.1,16.2,23.8-3.9,48.5,1.1z M159.7,249.1c39.6,0.1,72.1-31.9,72.3-71.3
			c0.2-39.7-31.7-72.2-71.1-72.5c-40-0.3-72.7,31.9-72.7,71.7C88.1,216.6,120.2,249,159.7,249.1z M257.9,28.3
			c-8.3,0-16.5-0.1-24.8,0c-7.2,0.1-11.2,3.8-11.3,11.1c-0.2,13.1-0.2,26.2,0,39.3c0.1,7.2,4.1,11.1,11.3,11.1
			c16.5,0.1,33.1,0.2,49.6,0c7.2-0.1,10.9-4.3,11-11.4c0.1-12.8,0.1-25.7,0-38.5c0-7.6-4.1-11.5-11.7-11.6
			C273.9,28.2,265.9,28.3,257.9,28.3z"/>
		<path fill="#FFFFFF" d="M62.9,116.8c0-38.8,0-77.1,0-116.1c5.2,0,10.5,0,16.2,0c0,38.6,0,77.1,0,116.1
			C73.9,116.8,68.9,116.8,62.9,116.8z"/>
		<path fill="#FFFFFF" d="M159.7,237.1c-32.9-0.2-59.6-27.1-59.5-60.1c0.1-33.2,27.3-60.1,60.7-59.7c32.8,0.3,59.3,27.5,59.1,60.5
			C219.8,210.6,192.7,237.3,159.7,237.1z"/>
	</g>
</g>
</svg>
