<?xml version="1.0" encoding="utf-8"?>
<!-- Generator: Adobe Illustrator 18.1.1, SVG Export Plug-In . SVG Version: 6.00 Build 0)  -->
<svg version="1.1" id="Layer_1" xmlns="http://www.w3.org/2000/svg" xmlns:xlink="http://www.w3.org/1999/xlink" x="0px" y="0px"
	 width="795.1px" height="144.7px" viewBox="-319 540.3 795.1 144.7" enable-background="new -319 540.3 795.1 144.7"
	 xml:space="preserve">
<polygon fill="#FFFFFF" points="-242.2,542.2 -219.2,588.9 -167.6,596.4 -204.9,632.8 -196.1,684.1 -242.2,659.9 -288.3,684.1 
	-279.5,632.8 -316.8,596.4 -265.3,588.9 "/>
<polygon fill="#FFFFFF" points="-81.1,542.2 -58.1,588.9 -6.5,596.4 -43.8,632.8 -35,684.1 -81.1,659.9 -127.2,684.1 -118.4,632.8 
	-155.7,596.4 -104.2,588.9 "/>
<polygon fill="#FFFFFF" points="79.1,542.2 102.1,588.9 153.7,596.4 116.4,632.8 125.2,684.1 79.1,659.9 33,684.1 41.8,632.8 
	4.5,596.4 56,588.9 "/>
<polygon fill="#FFFFFF" points="239.2,542.2 262.2,588.9 313.8,596.4 276.5,632.8 285.3,684.1 239.2,659.9 193.1,684.1 201.9,632.8 
	164.6,596.4 216.1,588.9 "/>
<polygon fill="#FFFFFF" points="399.3,542.2 422.3,588.9 473.9,596.4 436.6,632.8 445.4,684.1 399.3,659.9 353.2,684.1 362,632.8 
	324.7,596.4 376.2,588.9 "/>
</svg>
